<svg xmlns="http://www.w3.org/2000/svg" fill="#5F6368" viewBox="0 0 64 64">
<path d="
  M 30.47 17.10
  Q 27.82 15.82 26.75 13.00
  Q 25.75 10.35 28.94 11.31
  Q 30.75 11.86 27.62 7.47
  Q 27.18 6.85 27.09 6.10
  Q 26.70 3.15 29.27 2.58
  A 1.29 1.15 52.9 0 1 30.18 2.76
  Q 33.29 4.73 32.88 8.16
  Q 32.67 9.91 34.05 8.82
  Q 36.35 7.02 37.03 9.11
  Q 37.31 9.98 36.88 11.36
  Q 36.12 13.78 35.86 16.31
  A 1.06 0.81 83.4 0 1 35.39 17.09
  Q 34.29 17.65 33.94 16.06
  Q 33.11 12.37 30.90 7.52
  A 1.30 0.97 80.7 0 0 30.23 6.87
  Q 29.18 6.53 30.00 8.09
  Q 33.51 14.81 32.98 23.84
  Q 32.93 24.65 32.29 24.17
  Q 30.00 22.48 28.50 20.00
  Q 27.03 17.56 30.00 18.25
  Q 31.04 18.49 31.03 17.80
  A 0.97 0.64 17.7 0 0 30.47 17.10
  Z"
/>
<path d="
  M 47.88 11.02
  Q 47.63 11.97 49.00 12.00
  Q 50.97 12.04 49.19 13.44
  Q 47.54 14.73 45.52 15.29
  Q 44.82 15.49 44.45 15.80
  Q 43.06 16.94 45.48 17.18
  Q 46.65 17.30 46.09 18.19
  Q 45.87 18.54 45.39 18.77
  Q 43.23 19.77 40.92 20.33
  A 0.93 0.72 -2.8 0 0 40.26 20.90
  Q 40.04 21.79 41.25 21.81
  Q 42.72 21.83 42.63 22.79
  Q 42.57 23.36 41.89 23.83
  Q 40.21 25.01 38.32 25.72
  Q 35.63 26.74 36.89 24.16
  Q 41.82 14.07 50.28 7.29
  Q 50.61 7.02 50.73 6.74
  Q 50.97 6.18 50.54 6.07
  A 1.15 0.69 -49.3 0 0 49.70 6.35
  Q 41.01 13.30 35.72 23.81
  Q 35.01 25.22 34.49 23.73
  Q 33.78 21.67 34.03 18.88
  A 0.57 0.57 -71.2 0 1 34.90 18.45
  Q 36.26 19.31 36.84 19.12
  Q 37.30 18.96 37.09 17.73
  Q 36.71 15.47 37.45 13.31
  Q 37.70 12.57 38.20 12.26
  Q 39.16 11.67 39.66 12.96
  A 1.10 0.52 74.6 0 0 40.26 13.66
  Q 41.10 13.81 40.85 11.14
  Q 40.74 9.97 41.16 8.88
  Q 42.13 6.34 43.37 7.17
  A 1.33 0.82 -87.0 0 1 43.82 7.99
  Q 44.20 10.25 45.29 7.77
  Q 46.68 4.59 49.76 3.59
  Q 51.43 3.05 52.61 3.95
  Q 54.40 5.29 52.44 7.69
  Q 51.42 8.93 48.51 10.35
  A 1.23 0.80 -13.8 0 0 47.88 11.02
  Z"
/>
<path d="
  M 44.98 25.60
  Q 43.92 25.54 44.49 26.44
  Q 46.13 28.98 43.58 28.76
  Q 41.26 28.56 38.99 28.04
  Q 37.80 27.77 38.49 26.77
  A 0.39 0.37 1.8 0 1 38.66 26.62
  Q 47.73 22.42 53.74 22.03
  A 1.18 0.85 9.4 0 0 54.57 21.62
  Q 55.19 20.70 53.26 20.85
  Q 49.00 21.19 44.97 22.58
  A 1.72 1.34 -41.0 0 1 44.01 22.63
  Q 41.78 22.01 44.17 20.65
  Q 46.75 19.17 49.16 17.37
  A 1.42 0.97 -52.8 0 1 50.06 17.07
  Q 51.40 17.24 51.00 19.02
  Q 50.67 20.48 51.85 19.56
  Q 53.48 18.30 55.53 18.33
  Q 57.30 18.35 58.26 19.26
  Q 59.48 20.43 58.33 22.40
  A 1.48 1.37 3.4 0 1 57.60 23.00
  Q 55.17 23.93 52.64 23.28
  Q 51.64 23.01 51.22 23.20
  Q 50.30 23.62 52.45 25.20
  Q 53.45 25.93 52.31 26.42
  Q 48.87 27.89 46.28 26.21
  Q 45.37 25.62 44.98 25.60
  Z"
/>
<path d="
  M 27.48 35.86
  Q 25.50 34.90 23.78 32.63
  A 1.21 1.21 -43.5 0 1 23.82 31.12
  Q 25.67 28.93 27.76 27.45
  Q 30.19 25.72 32.70 25.61
  Q 38.07 25.36 38.00 32.25
  Q 37.98 34.73 35.42 38.39
  Q 32.22 42.97 28.11 46.65
  Q 25.39 49.08 19.50 53.46
  Q 14.32 57.32 8.07 60.99
  Q 5.35 62.59 5.27 59.44
  Q 5.20 56.99 7.68 53.89
  A 0.60 0.59 33.5 0 1 8.43 53.74
  Q 9.42 54.29 10.43 54.76
  Q 10.86 54.96 11.23 54.92
  Q 12.10 54.81 11.58 54.12
  A 1.48 0.75 1.0 0 0 10.75 53.68
  Q 9.60 53.42 8.98 52.44
  A 0.85 0.80 46.2 0 1 8.97 51.55
  L 12.24 46.51
  A 0.36 0.33 42.7 0 1 12.80 46.51
  Q 14.36 48.43 16.37 49.34
  Q 16.78 49.53 17.17 49.47
  Q 18.11 49.32 17.46 48.59
  Q 17.25 48.34 16.81 48.19
  Q 14.76 47.45 13.52 45.67
  A 0.80 0.72 45.9 0 1 13.49 44.81
  L 17.40 39.18
  A 0.38 0.36 46.6 0 1 18.01 39.22
  Q 19.66 41.77 21.94 42.86
  Q 22.28 43.02 22.59 42.99
  Q 23.31 42.91 22.88 42.30
  Q 22.74 42.10 22.42 41.91
  Q 20.64 40.90 19.23 39.04
  A 1.81 1.78 45.8 0 1 19.24 36.84
  L 22.11 33.23
  A 0.40 0.39 46.3 0 1 22.74 33.25
  Q 24.70 35.92 27.30 36.85
  Q 28.07 37.12 28.04 36.54
  A 0.98 0.66 16.7 0 0 27.48 35.86
  Z"
/>
</svg>
