<svg width="306" height="72" viewBox="0 0 306 72" fill="none" xmlns="http://www.w3.org/2000/svg">
<path d="M9.744 9.712V33.904H23.952C27.536 33.904 30.576 32.752 33.072 30.448C35.568 28.08 36.816 25.168 36.816 21.712C36.816 18.512 35.632 15.728 33.264 13.36C30.96 10.928 28.048 9.712 24.528 9.712H9.744ZM9.744 70H0.912V1.264H24.336C30.288 1.264 35.344 3.248 39.504 7.216C43.728 11.12 45.84 15.952 45.84 21.712C45.84 26.448 44.272 30.672 41.136 34.384C38.064 38.032 34.16 40.368 29.424 41.392L29.232 41.68L48.528 69.616V70H38.064L19.536 42.16H9.744V70ZM183.99 71.536C180.534 71.536 177.366 70.8 174.486 69.328C171.67 67.856 169.494 65.904 167.958 63.472H167.574V70H159.126V1.264H167.958V22.96L167.574 29.488H167.958C169.494 27.056 171.67 25.104 174.486 23.632C177.366 22.16 180.534 21.424 183.99 21.424C190.198 21.424 195.446 23.856 199.734 28.72C204.15 33.648 206.358 39.568 206.358 46.48C206.358 53.456 204.15 59.376 199.734 64.24C195.446 69.104 190.198 71.536 183.99 71.536ZM182.55 63.472C186.774 63.472 190.326 61.872 193.206 58.672C196.086 55.536 197.526 51.472 197.526 46.48C197.526 41.552 196.086 37.488 193.206 34.288C190.326 31.088 186.774 29.488 182.55 29.488C178.262 29.488 174.678 31.088 171.798 34.288C168.982 37.488 167.574 41.552 167.574 46.48C167.574 51.472 168.982 55.568 171.798 58.768C174.678 61.904 178.262 63.472 182.55 63.472Z" fill="#4285F4"/>
<path d="M61.308 55.6C61.308 57.904 62.268 59.824 64.188 61.36C66.172 62.896 68.476 63.664 71.1 63.664C74.812 63.664 78.108 62.288 80.988 59.536C83.932 56.784 85.404 53.552 85.404 49.84C82.652 47.664 78.812 46.576 73.884 46.576C70.3 46.576 67.292 47.44 64.86 49.168C62.492 50.896 61.308 53.04 61.308 55.6ZM72.732 21.424C79.26 21.424 84.412 23.184 88.188 26.704C91.964 30.16 93.852 34.928 93.852 41.008V70H85.404V63.472H85.02C81.372 68.848 76.508 71.536 70.428 71.536C65.244 71.536 60.892 70 57.372 66.928C53.916 63.856 52.188 60.016 52.188 55.408C52.188 50.544 54.012 46.672 57.66 43.792C61.372 40.912 66.3 39.472 72.444 39.472C77.692 39.472 82.012 40.432 85.404 42.352V40.336C85.404 37.264 84.188 34.672 81.756 32.56C79.324 30.384 76.476 29.296 73.212 29.296C68.284 29.296 64.38 31.376 61.5 35.536L53.724 30.64C58.012 24.496 64.348 21.424 72.732 21.424ZM254.156 70.768C250.316 70.768 247.116 69.584 244.556 67.216C242.06 64.848 240.78 61.552 240.716 57.328V31.024H232.46V22.96H240.716V8.56H249.548V22.96H261.068V31.024H249.548V54.448C249.548 57.584 250.156 59.728 251.372 60.88C252.588 61.968 253.964 62.512 255.5 62.512C256.204 62.512 256.876 62.448 257.516 62.32C258.22 62.128 258.86 61.904 259.436 61.648L262.22 69.52C259.916 70.352 257.228 70.768 254.156 70.768Z" fill="#DB4437"/>
<path d="M128.678 71.536C125.222 71.536 122.054 70.8 119.174 69.328C116.358 67.856 114.182 65.904 112.646 63.472H112.262V70H103.814V1.264H112.646V22.96L112.262 29.488H112.646C114.182 27.056 116.358 25.104 119.174 23.632C122.054 22.16 125.222 21.424 128.678 21.424C134.886 21.424 140.134 23.856 144.422 28.72C148.838 33.648 151.046 39.568 151.046 46.48C151.046 53.456 148.838 59.376 144.422 64.24C140.134 69.104 134.886 71.536 128.678 71.536ZM127.238 63.472C131.462 63.472 135.014 61.872 137.894 58.672C140.774 55.536 142.214 51.472 142.214 46.48C142.214 41.552 140.774 37.488 137.894 34.288C135.014 31.088 131.462 29.488 127.238 29.488C122.95 29.488 119.366 31.088 116.486 34.288C113.67 37.488 112.262 41.552 112.262 46.48C112.262 51.472 113.67 55.568 116.486 58.768C119.366 61.904 122.95 63.472 127.238 63.472ZM305.47 56.944C305.47 61.04 303.678 64.496 300.094 67.312C296.51 70.128 291.998 71.536 286.558 71.536C281.822 71.536 277.662 70.32 274.078 67.888C270.494 65.392 267.934 62.128 266.398 58.096L274.27 54.736C275.422 57.552 277.086 59.76 279.262 61.36C281.502 62.896 283.934 63.664 286.558 63.664C289.374 63.664 291.71 63.056 293.566 61.84C295.486 60.624 296.446 59.184 296.446 57.52C296.446 54.512 294.142 52.304 289.534 50.896L281.47 48.88C272.318 46.576 267.742 42.16 267.742 35.632C267.742 31.344 269.47 27.92 272.926 25.36C276.446 22.736 280.926 21.424 286.366 21.424C290.526 21.424 294.27 22.416 297.598 24.4C300.99 26.384 303.358 29.04 304.702 32.368L296.83 35.632C295.934 33.648 294.462 32.112 292.414 31.024C290.43 29.872 288.19 29.296 285.694 29.296C283.39 29.296 281.31 29.872 279.454 31.024C277.662 32.176 276.766 33.584 276.766 35.248C276.766 37.936 279.294 39.856 284.35 41.008L291.454 42.832C300.798 45.136 305.47 49.84 305.47 56.944Z" fill="#F4B400"/>
<path d="M225.863 6.736C225.863 8.464 225.255 9.936 224.039 11.152C222.823 12.368 221.351 12.976 219.623 12.976C217.895 12.976 216.423 12.368 215.207 11.152C213.991 9.936 213.383 8.464 213.383 6.736C213.383 5.008 213.991 3.536 215.207 2.32C216.423 1.104 217.895 0.495996 219.623 0.495996C221.351 0.495996 222.823 1.104 224.039 2.32C225.255 3.536 225.863 5.008 225.863 6.736ZM224.039 22.96V70H215.207V22.96H224.039Z" fill="#0F9D58"/>
</svg>
